<?xml version="1.0" standalone="no"?>
<!DOCTYPE svg PUBLIC "-//W3C//DTD SVG 20010904//EN"
 "http://www.w3.org/TR/2001/REC-SVG-20010904/DTD/svg10.dtd">
<svg version="1.0" xmlns="http://www.w3.org/2000/svg"
 width="400.000000pt" height="400.000000pt" viewBox="0 0 400.000000 400.000000"
 preserveAspectRatio="xMidYMid meet">
<metadata>
Created by potrace 1.11, written by Peter Selinger 2001-2013
</metadata>
<g transform="translate(0.000000,400.000000) scale(0.100000,-0.100000)"
fill="#000000" stroke="none">
<path d="M1717 3834 c-588 -91 -1096 -458 -1367 -986 -125 -242 -190 -497
-203 -785 l-4 -83 41 6 c302 42 595 112 896 213 305 103 273 82 294 198 71
411 235 892 438 1290 43 84 78 156 78 158 0 9 -83 3 -173 -11z"/>
<path d="M2036 3768 c-49 -250 -67 -544 -47 -758 12 -129 56 -369 71 -383 20
-21 594 301 1043 586 158 100 186 121 176 133 -25 31 -167 144 -247 197 -104
70 -253 147 -369 191 -171 65 -413 116 -549 116 l-61 0 -17 -82z"/>
<path d="M3344 3078 c-286 -342 -512 -762 -695 -1297 l-42 -124 124 -121 c68
-67 185 -170 259 -229 125 -101 383 -280 492 -341 l46 -27 50 83 c190 316 273
615 273 978 0 360 -88 676 -272 977 -59 96 -132 193 -146 193 -6 0 -46 -41
-89 -92z"/>
<path d="M150 1838 c0 -40 34 -226 56 -312 151 -575 579 -1052 1130 -1260 82
-31 276 -87 281 -82 2 2 -16 35 -40 72 -57 89 -81 136 -121 242 -73 190 -126
455 -148 728 l-12 152 -111 65 c-294 175 -540 278 -884 373 -140 38 -151 39
-151 22z"/>
<path d="M2340 688 c-57 -198 -114 -362 -154 -445 -52 -107 -60 -100 88 -78
336 51 653 192 913 407 40 33 73 65 73 69 0 5 -48 9 -107 9 -204 0 -482 35
-678 85 -55 14 -103 25 -107 25 -4 0 -17 -33 -28 -72z"/>
</g>
</svg>
